<svg xmlns="http://www.w3.org/2000/svg" viewBox="0 0 24 24"><g class="nc-icon-wrapper" fill="#89b8ff"><circle cx="20.182" cy="4.792" r="1.913"/><path d="M12.052 19.64a7.674 7.674 0 1 0-7.674-7.674 7.683 7.683 0 0 0 7.674 7.674zM8.709 7.474a2.822 2.822 0 0 1 1.83-.742 1.262 1.262 0 0 1 1.037.415.251.251 0 0 0 .347.044 4.019 4.019 0 0 0 .461-.422.249.249 0 0 0 .042-.284l-.414-.827a.253.253 0 0 1 .013-.247.25.25 0 0 1 .218-.115 6.654 6.654 0 0 1 4.718 2.154.25.25 0 0 1-.1.406c-.215.072-.426.145-.62.215a.25.25 0 0 0-.116.383 1.8 1.8 0 0 1 .341.823 3.354 3.354 0 0 1-1.184 2.5.25.25 0 0 0-.048.276c.272.611.7 1.614.132 2.183a3.922 3.922 0 0 0-.944 1.531c-.348.9-.7 1.484-2.28 1.484-.42 0-1.935-.722-1.935-1.456a6.936 6.936 0 0 1 .267-1.539c.217-.883.462-1.883.1-2.349a1.621 1.621 0 0 0-1.3-.395c-1.076 0-1.478-1.058-1.54-1.619a3.094 3.094 0 0 1 .975-2.419z"/><path d="M21.822 9.844c.033.147.061.295.086.442a1 1 0 1 0 1.972-.334 18.9 18.9 0 0 0-.1-.538 1 1 0 0 0-1.954.43z"/><path d="M23.055 12.97a1 1 0 0 0-1.163.806q-.078.432-.193.851a1 1 0 0 0 1.929.53q.138-.5.232-1.024a1 1 0 0 0-.805-1.163z"/><path d="M2.088 7.215a1 1 0 0 0 1.371-.347c.149-.25.308-.494.479-.728A1 1 0 0 0 2.32 4.964q-.309.424-.58.88a1 1 0 0 0 .348 1.371z"/><path d="M2.613 15.3c-.1-.273-.18-.554-.253-.838a1 1 0 0 0-1.937.5c.087.339.188.674.3 1a1 1 0 1 0 1.89-.662z"/><path d="M6.436 3.71q.36-.244.743-.458A1 1 0 1 0 6.206 1.5c-.306.171-.6.356-.893.552A1 1 0 1 0 6.436 3.71z"/><path d="M10.467 2.11c.286-.045.576-.079.869-.1a1 1 0 0 0 .928-1.066A1.021 1.021 0 0 0 11.2.015c-.352.025-.7.065-1.042.12a1 1 0 1 0 .312 1.975z"/><path d="M1.008 11.885a1 1 0 0 0 1.093-.9c.029-.293.071-.581.124-.866a1 1 0 0 0-1.966-.365c-.059.346-.114.688-.148 1.037a1 1 0 0 0 .897 1.094z"/><path d="M12.84 21.955c-.249.02-.5.031-.842.031a.974.974 0 0 0-.994 1 1.041 1.041 0 0 0 1.082 1c.306 0 .61-.013.911-.036a1 1 0 0 0-.157-2z"/><path d="M8.542 21.352a8.404 8.404 0 0 1-.8-.343 1 1 0 1 0-.863 1.8q.471.225.965.411a1 1 0 1 0 .7-1.873z"/><path d="M16.987 20.685q-.379.215-.778.4a1 1 0 1 0 .831 1.815q.48-.219.935-.479a1 1 0 0 0-.988-1.738z"/><path d="M21.6 17.537a1 1 0 0 0-1.4.237 9.937 9.937 0 0 1-.537.689 1 1 0 0 0 1.522 1.3c.227-.267.442-.542.645-.828a1 1 0 0 0-.23-1.398z"/><path d="M4.32 18.327A1 1 0 0 0 2.778 19.6c.222.268.455.528.7.777a1 1 0 1 0 1.431-1.4q-.309-.31-.589-.65z"/><path d="M14.834 2.377c.144.042.287.087.428.135a1 1 0 1 0 .647-1.893q-.26-.088-.525-.164a1 1 0 0 0-.55 1.922z"/></g></svg>